<svg xmlns="http://www.w3.org/2000/svg" preserveAspectRatio="xMidYMid" width="16" height="14" viewBox="0 0 16 14"><defs><style>.cls-1{fill:#fff;fill-rule:evenodd}</style></defs><path d="M0 8.121v4.182c0 .98.873 1.696 1.822 1.696h8.305c.949 0 1.62-.717 1.62-1.696v-.056l3.058 1.568c.057.03.094.045.157.045.596 0 1.038-.501 1.038-1.14V7.308c0-.639-.416-1.14-1.012-1.14-.064 0-.1.015-.157.045L11.804 7.79c-.146-.795-.8-1.402-1.602-1.441A3.549 3.549 0 0 0 11.6 3.518C11.6 1.578 10.072 0 8.193 0c-1.536 0-2.835 1.053-3.26 2.497a2.532 2.532 0 0 0-1.829-.787c-1.422 0-2.58 1.194-2.58 2.662 0 .809.302 1.533.855 2.021C.619 6.577 0 7.281 0 8.121zm15.012-1.106c.122.039.178.17.178.293v5.412c0 .124-.056.254-.178.293l-3.265-1.702V8.709l3.265-1.694zM5.416 5.469c.21.306.467.588.76.796H4.831a2.47 2.47 0 0 0 .585-.796zm.18-1.951c0-1.479 1.165-2.682 2.598-2.682 1.433 0 2.599 1.203 2.599 2.682 0 1.478-1.166 2.681-2.599 2.681-1.218 0-2.24-.871-2.52-2.041a2.665 2.665 0 0 0-.067-.423 2.605 2.605 0 0 1-.011-.217zm-2.491-.972c.804 0 1.483.557 1.698 1.316.013.144.037.285.067.424.001.029.005.057.005.086 0 1.008-.794 1.827-1.77 1.827s-1.77-.819-1.77-1.827c0-1.007.794-1.826 1.77-1.826zm7.832 9.678c0 .519-.408.939-.911.939H1.721c-.503 0-.911-.42-.911-.939V8.042c0-.519.408-.94.911-.94h8.305c.503 0 .911.421.911.94v4.182z" class="cls-1"/></svg>