<svg xmlns="http://www.w3.org/2000/svg" preserveAspectRatio="xMidYMid" width="26" height="19" viewBox="0 0 26 19"><defs><style>.cls-1{fill:#a0a7af;filter:url(#color-overlay-1);fill-rule:evenodd}</style><filter id="color-overlay-1" filterUnits="userSpaceOnUse"><feFlood flood-color="#de4d6c"/><feComposite operator="in" in2="SourceGraphic"/><feBlend in2="SourceGraphic" result="solidFill"/></filter></defs><path d="M25.207 3.832a1.668 1.668 0 0 0-1.645-.116l-3.492 1.66v-.062c0-.856-.676-1.553-1.508-1.553h-2.141V1.412c0-.776-.614-1.409-1.369-1.409H.456A.463.463 0 0 0 0 .473c0 .26.204.47.456.47h14.596c.252 0 .457.21.457.469v2.349H1.508C.676 3.761 0 4.458 0 5.314v11.923c0 .856.676 1.553 1.508 1.553h17.054c.832 0 1.508-.697 1.508-1.553v-.061l3.492 1.659a1.674 1.674 0 0 0 1.646-.116c.496-.326.792-.884.792-1.49V5.322c0-.606-.296-1.163-.793-1.49zm-6.049 13.405a.606.606 0 0 1-.596.614H1.508a.605.605 0 0 1-.596-.614V5.314c0-.338.267-.614.596-.614h17.054c.328 0 .596.276.596.614V17.237zm5.93-.008a.822.822 0 0 1-.372.699.769.769 0 0 1-.772.054l-3.874-1.841V6.41l3.874-1.841a.771.771 0 0 1 .772.054.822.822 0 0 1 .372.699v11.907z" class="cls-1"/></svg>