<svg xmlns="http://www.w3.org/2000/svg" preserveAspectRatio="xMidYMid" width="26" height="26" viewBox="0 0 26 26"><defs><style>.cls-1{fill:#949494;fill-rule:evenodd}</style></defs><path d="M13 0C5.791 0 0 5.791 0 13s5.791 13 13 13 13-5.791 13-13S20.209 0 13 0zm1.891 13.236l4.432 4.432a.64.64 0 0 1 .177.414.637.637 0 0 1-.177.413l-.828.828a.637.637 0 0 1-.413.177.538.538 0 0 1-.414-.177l-4.432-4.432a.285.285 0 0 0-.413 0l-4.432 4.432a.64.64 0 0 1-.414.177.536.536 0 0 1-.413-.177l-.828-.828a.637.637 0 0 1-.177-.413.64.64 0 0 1 .177-.414l4.432-4.432a.285.285 0 0 0 0-.413L6.736 8.391a.64.64 0 0 1-.177-.414c0-.118.059-.295.177-.413l.828-.828a.637.637 0 0 1 .413-.177.64.64 0 0 1 .414.177l4.432 4.432a.285.285 0 0 0 .413 0l4.432-4.432a.64.64 0 0 1 .414-.177c.177 0 .295.059.413.177l.828.828a.637.637 0 0 1 .177.413.64.64 0 0 1-.177.414l-4.432 4.432c-.118.059-.118.295 0 .413z" class="cls-1"/></svg>