<svg xmlns="http://www.w3.org/2000/svg" preserveAspectRatio="xMidYMid" width="45" height="36" viewBox="0 0 45 36"><defs><style>.cls-1{fill:#fff;fill-rule:evenodd}</style></defs><path d="M39.375 5.684H33.75c0-3.127-2.531-5.685-5.625-5.685h-22.5C2.531-.001 0 2.557 0 5.684v13.263c0 3.126 2.531 5.684 5.625 5.684v5.684l5.625-5.684c0 3.126 2.531 5.684 5.625 5.684h15L37.5 36v-5.685h1.875c3.094 0 5.625-2.558 5.625-5.684V11.368c0-3.126-2.531-5.684-5.625-5.684zM5.625 20.842c-1.016 0-1.875-.868-1.875-1.895V5.684c0-1.027.859-1.895 1.875-1.895h22.5c1.016 0 1.875.868 1.875 1.895v1.894H17.812c-2.585 0-4.687 2.125-4.687 4.737v8.527h-7.5zm35.625 3.789c0 1.027-.859 1.895-1.875 1.895h-22.5c-1.016 0-1.875-.868-1.875-1.895V12.315c0-1.566 1.262-2.842 2.812-2.842h21.563c1.016 0 1.875.868 1.875 1.895v13.263z" class="cls-1"/></svg>