<svg xmlns="http://www.w3.org/2000/svg" preserveAspectRatio="xMidYMid" width="45" height="43" viewBox="0 0 45 43"><defs><style>.cls-1{fill:#de4d6c;fill-rule:evenodd}</style></defs><path d="M.009 22.458c0 3.413 2.809 6.2 6.27 6.2h9.694v6.909c0 2.922.863 5.029 2.57 6.263 2.699 1.961 6.408.844 6.564.79.468-.146.79-.572.79-1.062v-7.761c0-6.11 7.169-8.189 7.472-8.28a.983.983 0 0 0 .248-.1 3.25 3.25 0 0 0 2.901 1.78h5.251c1.78 0 3.231-1.435 3.231-3.196V5.128c0-1.76-1.451-3.195-3.231-3.195H38.73c-.624 0-1.129.499-1.129 1.117 0 .617.514 1.107 1.129 1.107h3.039c.541 0 .982.436.982.971v18.873a.978.978 0 0 1-.982.972h-5.26a.979.979 0 0 1-.983-.972V6.2c0-3.414-2.809-6.201-6.27-6.201H10.052c-4.26 0-6.968 2.206-7.445 6.019L.018 22.086a1.115 1.115 0 0 0-.018.172v.2h.009zm2.249-.1l2.58-16.022c.339-2.723 2.093-4.113 5.214-4.113h19.204c2.213 0 4.021 1.78 4.021 3.977v17.166a1.109 1.109 0 0 0-.514.018c-.376.1-9.116 2.605-9.116 10.421v6.863c-.954.146-2.588.227-3.773-.626-1.092-.799-1.652-2.297-1.652-4.475v-8.025c0-.618-.505-1.117-1.129-1.117H6.27c-2.213 0-4.021-1.779-4.021-3.976v-.091h.009z" class="cls-1"/></svg>