<svg xmlns="http://www.w3.org/2000/svg" preserveAspectRatio="xMidYMid" width="38" height="37" viewBox="0 0 38 37"><defs><style>.cls-1{fill:#fff;fill-rule:evenodd}</style></defs><path d="M35.796 13.188a7.786 7.786 0 0 0-3.919-2.122c-.379-2.823-1.709-5.427-3.82-7.443-2.451-2.333-5.69-3.624-9.115-3.624s-6.665 1.284-9.115 3.624C7.708 5.646 6.378 8.258 6 11.089c-3.456.777-6 3.797-6 7.391 0 4.189 3.487 7.594 7.778 7.594h9.587v5.722l-2.157-2.016c-.665-.566-1.663-.566-2.242.083-.58.65-.58 1.624.085 2.19l4.816 4.537c1.044.785 1.825.241 2.157 0l4.817-4.537c.665-.566.665-1.54.085-2.19-.58-.649-1.577-.649-2.242-.083l-2.165 2.016v-5.715h9.703c4.291 0 7.778-3.404 7.778-7.594 0-1.993-.781-3.88-2.204-5.299zm-5.574 9.798h-9.703v-9.829c0-.807-.75-1.54-1.577-1.54s-1.577.65-1.577 1.54v9.822H7.778c-2.544 0-4.608-2.016-4.608-4.499 0-2.408 1.925-4.386 4.391-4.492.827-.038 1.492-.695 1.508-1.51.139-5.269 4.476-9.391 9.873-9.391 5.396 0 9.734 4.122 9.873 9.391a1.567 1.567 0 0 0 1.538 1.51c2.513.068 4.477 2.046 4.477 4.499 0 2.476-2.064 4.499-4.608 4.499z" class="cls-1"/></svg>