<svg xmlns="http://www.w3.org/2000/svg" preserveAspectRatio="xMidYMid" width="44" height="36" viewBox="0 0 44 36"><defs><style>.cls-1{fill:#fff;fill-rule:evenodd}</style></defs><path d="M40.47 3.529c-4.786-4.703-12.572-4.703-17.356 0L22.002 4.62l-1.11-1.091c-4.785-4.703-12.571-4.703-17.355 0-4.688 4.607-4.718 11.909-.071 16.987 4.239 4.629 16.739 14.63 17.27 15.053.36.288.793.428 1.224.428l.042-.001c.445.021.894-.13 1.266-.427.53-.423 13.032-10.424 17.272-15.054 4.647-5.077 4.616-12.379-.07-16.986zm-2.818 14.432c-3.305 3.608-12.389 11.05-15.65 13.691-3.261-2.64-12.344-10.082-15.648-13.691-3.242-3.541-3.272-8.585-.07-11.731a8.435 8.435 0 0 1 5.93-2.411c2.147 0 4.295.803 5.93 2.411l2.443 2.4c.291.286.657.457 1.042.516a1.968 1.968 0 0 0 1.787-.515L25.86 6.23c3.271-3.214 8.592-3.214 11.861 0 3.202 3.146 3.172 8.19-.069 11.731z" class="cls-1"/></svg>