<svg xmlns="http://www.w3.org/2000/svg" preserveAspectRatio="xMidYMid" width="45" height="42.969" viewBox="0 0 45 42.969"><defs><style>.cls-1{fill:#8cc80d;fill-rule:evenodd}</style></defs><path d="M44.991 20.526c0-3.41-2.809-6.196-6.27-6.196h-9.694V7.427c0-2.92-.863-5.025-2.571-6.259-2.698-1.959-6.407-.843-6.563-.789-.468.145-.79.571-.79 1.061v7.756c0 6.105-7.169 8.183-7.472 8.273a1.005 1.005 0 0 0-.248.1 3.252 3.252 0 0 0-2.901-1.778H3.231C1.45 15.791 0 17.224 0 18.984v18.859c0 1.76 1.45 3.194 3.231 3.194H6.27c.624 0 1.129-.499 1.129-1.116 0-.617-.514-1.107-1.129-1.107H3.231a.978.978 0 0 1-.982-.971V18.984c0-.535.441-.97.982-.97h5.26c.542 0 .983.435.983.97v17.789c0 3.411 2.809 6.196 6.27 6.196h19.204c4.259 0 6.968-2.205 7.445-6.015l2.589-16.055c.009-.055.018-.119.018-.173v-.2h-.009zm-2.249.1l-2.58 16.011c-.339 2.721-2.093 4.109-5.214 4.109H15.744c-2.213 0-4.021-1.778-4.021-3.973V19.619c.165.036.339.027.514-.018.376-.1 9.115-2.604 9.115-10.414V2.329c.955-.145 2.589-.226 3.773.626 1.093.798 1.653 2.295 1.653 4.472v8.02c0 .616.505 1.115 1.129 1.115H38.73c2.212 0 4.021 1.778 4.021 3.974v.09h-.009z" class="cls-1"/></svg>