<svg xmlns="http://www.w3.org/2000/svg" preserveAspectRatio="xMidYMid" width="30" height="40" viewBox="0 0 30 40"><defs><style>.cls-1{fill:#7da530;fill-rule:evenodd}</style></defs><path d="M14.994 2.632c4.693 0 8.51 3.937 8.51 8.775 0 .729.572 1.319 1.279 1.319s1.279-.59 1.279-1.319c0-6.293-4.965-11.412-11.068-11.412-6.102 0-11.067 5.119-11.067 11.412v4.426h-.094c-2.115 0-3.837 1.774-3.837 3.956v16.248c0 2.182 1.722 3.957 3.837 3.957h22.323c2.117 0 3.838-1.775 3.838-3.957V19.789c0-2.182-1.721-3.956-3.838-3.956H6.486v-4.426c0-4.838 3.817-8.775 8.508-8.775zm12.442 17.157v16.248c0 .728-.574 1.32-1.28 1.32H3.833c-.705 0-1.279-.591-1.279-1.32V19.789c0-.726.574-1.318 1.279-1.318h22.323c.706 0 1.28.592 1.28 1.318z" class="cls-1"/></svg>