<svg xmlns="http://www.w3.org/2000/svg" preserveAspectRatio="xMidYMid" width="15" height="14" viewBox="0 0 15 14"><defs><style>.cls-1{fill:#fff;fill-rule:evenodd}</style></defs><path d="M12.989 13.999H2.011C.907 13.999 0 13.008 0 11.821V4.834c0-1.186.907-2.161 2.011-2.161l1.459-.008L5.027.239a.49.49 0 0 1 .404-.24h4.063c.165 0 .322.098.412.248l1.509 2.418 1.574.008c1.104 0 2.011.975 2.011 2.161v6.987c0 1.187-.907 2.178-2.011 2.178zm1.014-2.178V4.834c0-.602-.462-1.098-1.022-1.098l-1.847-.017a.497.497 0 0 1-.403-.24l-1.5-2.408H5.695L4.137 3.497a.488.488 0 0 1-.404.239H2.011c-.561 0-1.022.496-1.022 1.098v6.987c0 .602.461 1.116 1.022 1.116h10.978c.56 0 1.022-.514 1.022-1.116h-.008zm-1.772-5.579c-.38 0-.684-.328-.684-.734 0-.408.305-.736.684-.736.379 0 .684.328.684.736 0 .406-.305.734-.684.734zm0-1.062c-.165 0-.305.15-.305.328 0 .176.132.327.305.327s.305-.151.305-.327c0-.178-.14-.328-.305-.328zm0 .531c-.105 0-.19-.091-.19-.203 0-.113.085-.204.19-.204.104 0 .189.091.189.204 0 .112-.085.203-.189.203zm-4.69 5.764c-1.929 0-3.503-1.69-3.503-3.763 0-2.072 1.566-3.763 3.503-3.763 1.929 0 3.503 1.691 3.503 3.763 0 2.073-1.574 3.763-3.503 3.763zm0-6.464c-1.384 0-2.514 1.214-2.514 2.701 0 1.488 1.13 2.701 2.514 2.701 1.385 0 2.514-1.213 2.514-2.701 0-1.487-1.129-2.701-2.514-2.701z" class="cls-1"/></svg>