<svg xmlns="http://www.w3.org/2000/svg" preserveAspectRatio="xMidYMid" width="25" height="20" viewBox="0 0 25 20"><defs><style>.cls-1{fill:#a0a7af;fill-rule:evenodd}</style></defs><path d="M23.547 19.999H1.452A1.46 1.46 0 0 1 0 18.534V3.204a1.46 1.46 0 0 1 1.452-1.465h22.095A1.46 1.46 0 0 1 25 3.204v15.33a1.46 1.46 0 0 1-1.453 1.465zm.591-16.795a.594.594 0 0 0-.591-.596H1.452a.594.594 0 0 0-.59.596v15.33c0 .329.265.596.59.596h22.095a.594.594 0 0 0 .591-.596V3.204zM12.931 18.26c-4.041 0-7.328-3.315-7.328-7.391 0-4.075 3.287-7.391 7.328-7.391 4.04 0 7.327 3.316 7.327 7.391 0 4.076-3.287 7.391-7.327 7.391zm0-13.912c-3.565 0-6.466 2.925-6.466 6.521s2.901 6.522 6.466 6.522c3.565 0 6.465-2.926 6.465-6.522s-2.9-6.521-6.465-6.521zM16.81.869H8.62a.432.432 0 0 1-.43-.435c0-.24.192-.435.43-.435h8.19c.238 0 .431.195.431.435a.433.433 0 0 1-.431.435z" class="cls-1"/></svg>