<svg xmlns="http://www.w3.org/2000/svg" preserveAspectRatio="xMidYMid" width="37" height="37" viewBox="0 0 37 37"><defs><style>.cls-1{fill:#fff;fill-rule:evenodd}</style></defs><path d="M35.5 26.713h-4.223v-8.114H34V3.07H13.53v2.396h-3V1.535c0-.848.671-1.535 1.5-1.535H35.5c.829 0 1.5.687 1.5 1.535v23.643c0 .848-.672 1.535-1.5 1.535zm-9.03-14.892v23.644c0 .847-.672 1.535-1.5 1.535H1.5C.671 37 0 36.312 0 35.465V11.821c0-.848.671-1.535 1.5-1.535h23.47c.828 0 1.5.687 1.5 1.535zm-3 1.535H2.999v15.529H23.47V13.356z" class="cls-1"/></svg>