<svg xmlns="http://www.w3.org/2000/svg" preserveAspectRatio="xMidYMid" width="23" height="23" viewBox="0 0 23 23"><defs><style>.cls-1{fill:#303036;fill-rule:evenodd}</style></defs><path d="M22.236 22.259a2.498 2.498 0 0 1-1.783.74 2.502 2.502 0 0 1-1.784-.74l-2.402-2.405a.772.772 0 0 1-.23-.606.783.783 0 0 1 .325-.57 10.501 10.501 0 0 0 2.297-2.299.772.772 0 0 1 .627-.328.77.77 0 0 1 .547.233l2.403 2.405a2.528 2.528 0 0 1 0 3.57zm-12.229-2.225C4.489 20.034 0 15.54 0 10.017 0 4.493 4.489 0 10.007 0c5.517 0 10.006 4.493 10.006 10.017 0 5.523-4.489 10.017-10.006 10.017zm0-17.028c-3.862 0-7.004 3.145-7.004 7.011s3.142 7.01 7.004 7.01c3.861 0 7.003-3.144 7.003-7.01 0-3.866-3.142-7.011-7.003-7.011z" class="cls-1"/></svg>