<svg xmlns="http://www.w3.org/2000/svg" preserveAspectRatio="xMidYMid" width="18" height="24" viewBox="0 0 18 24"><defs><style>.cls-1{fill:#a0a7af;fill-rule:evenodd}</style></defs><path d="M17.935 23.014a9.987 9.987 0 0 0-5.41-5.063v-1.468c1.165-.065 3.362-.37 4.65-1.726a.706.706 0 0 0 .168-.655.678.678 0 0 0-.464-.483c-.02-.005-1.718-.604-1.378-4.179.149-1.523.124-2.895-.069-4.073-.222-1.351-.666-2.412-1.313-3.153-.701-.798-1.614-1.204-2.715-1.204h-.128C10.856.634 9.938 0 8.531 0c-.657 0-1.343.136-2.044.416l-.029.01c-.553.214-1.58.615-2.449 1.803C2.997 3.61 2.513 5.656 2.573 8.307c.059 2.656-.366 3.956-.731 4.581-.301.513-.588.615-.662.635-.251-.02-.454.112-.582.335-.133.229-.084.518.064.742.059.091.405.569 1.239 1.03.953.529 2.143.828 3.55.889v1.397c-2.34.914-4.285 2.752-5.386 5.103a.712.712 0 0 0 .034.661.668.668 0 0 0 .563.319h16.676a.661.661 0 0 0 .563-.319.723.723 0 0 0 .034-.666zm-16.138-.39c1.067-1.687 2.666-2.962 4.517-3.576a.684.684 0 0 0 .465-.65v-2.554a.69.69 0 0 0-.198-.488.65.65 0 0 0-.474-.198c-1.92.021-3.08-.431-3.712-.817.044-.046.094-.092.143-.143.972-1.041 1.432-3.031 1.367-5.92-.128-5.338 2.079-6.201 3.017-6.567l.029-.01c.553-.214 1.081-.325 1.57-.325 1.274 0 1.925.721 1.98.787a.64.64 0 0 0 .572.244c.109-.01.218-.015.321-.015.716 0 1.284.243 1.728.751.938 1.066 1.323 3.316 1.047 6.17-.277 2.879.597 4.322 1.352 5.022-1.017.579-2.463.798-3.554.798h-.099a.665.665 0 0 0-.484.193.692.692 0 0 0-.202.492v2.626c0 .3.188.559.464.65a8.664 8.664 0 0 1 4.542 3.539H1.797v-.009z" class="cls-1"/></svg>